<svg xmlns="http://www.w3.org/2000/svg" viewBox="0 0 1024 1024" fill="none">
  <defs>
    <linearGradient id="paint0_linear_monet" x1="220" y1="298" x2="676" y2="566" gradientUnits="userSpaceOnUse">
      <stop stop-color="white"/>
      <stop offset="1" stop-color="white" stop-opacity="0.4"/>
    </linearGradient>
    <linearGradient id="paint1_linear_monet" x1="804" y1="442" x2="382" y2="694" gradientUnits="userSpaceOnUse">
      <stop stop-color="white"/>
      <stop offset="1" stop-color="white" stop-opacity="0.4"/>
    </linearGradient>
  </defs>
  <rect x="112" y="112" width="800" height="800" rx="184" fill="#000000"/>
  <g transform="translate(0 1024) scale(1 -1)">
    <path
      d="M270 298H420L578 456L436 598H270C242.386 598 220 575.614 220 548V348C220 320.386 242.386 298 270 298Z"
      fill="url(#paint0_linear_monet)"
    />
    <path
      d="M604 442H754C781.614 442 804 464.386 804 492V676C804 703.614 781.614 726 754 726H604L446 568L588 442H604Z"
      fill="url(#paint1_linear_monet)"
    />
  </g>
</svg>
